PathFileType	4	(X/Y/Z)	Walk8.trc
DataRate	CameraRate	NumFrames	NumMarkers	Units	OrigDataRate	OrigDataStartFrame	OrigNumFrames
200.000000	200.000000	4	59	mm	200.000000	494	625
Frame#	Times		LFHD		RFHD		CLAV		STRN		LASI		RASI		RACR1		RUA1		RElbow		RFA1		RWRR		RWRU		RCAR		LACR1		LUA1		LElbow		LFA1		LWRR		RTB1		RTB2		LTH1		LTH3		LTH2		LMFC		LTB1		LTB2		LMT1		RTH2		LTB4		LLFC		LCAR		LWRU		LTB3		LMT5		LToe		RTB4		RTH3		RTB3		RMFC		LTH4		RTH1		RTH4		RMMAL		RBHD		RElbowM		RLFC		RToe		RBack		RMT1		RCAL		LLMAL		LElbowM		LMMAL		RPSI		C7		T10		LPSI		LBHD		LCAL
			X1	Y1	Z1	X2	Y2	Z2	X3	Y3	Z3	X4	Y4	Z4	X5	Y5	Z5	X6	Y6	Z6	X7	Y7	Z7	X8	Y8	Z8	X9	Y9	Z9	X10	Y10	Z10	X11	Y11	Z11	X12	Y12	Z12	X13	Y13	Z13	X14	Y14	Z14	X15	Y15	Z15	X16	Y16	Z16	X17	Y17	Z17	X18	Y18	Z18	X19	Y19	Z19	X20	Y20	Z20	X21	Y21	Z21	X22	Y22	Z22	X23	Y23	Z23	X24	Y24	Z24	X25	Y25	Z25	X26	Y26	Z26	X27	Y27	Z27	X28	Y28	Z28	X29	Y29	Z29	X30	Y30	Z30	X31	Y31	Z31	X32	Y32	Z32	X33	Y33	Z33	X34	Y34	Z34	X35	Y35	Z35	X36	Y36	Z36	X37	Y37	Z37	X38	Y38	Z38	X39	Y39	Z39	X40	Y40	Z40	X41	Y41	Z41	X42	Y42	Z42	X43	Y43	Z43	X44	Y44	Z44	X45	Y45	Z45	X46	Y46	Z46	X47	Y47	Z47	X48	Y48	Z48	X49	Y49	Z49	X50	Y50	Z50	X51	Y51	Z51	X52	Y52	Z52	X53	Y53	Z53	X54	Y54	Z54	X55	Y55	Z55	X56	Y56	Z56	X57	Y57	Z57	X58	Y58	Z58	X59	Y59	Z59

494	2.47	895	1658.3	99.344	899.31	1648.6	0.7587	902.78	1397.1	73.726	972.42	1239.4	74.927	854.75	970.74	-103.26	847.27	981.28	266.92	782.15	1481.8	239.03	774.19	1318.1	364.53	810.72	1177.9	424.69	888.89	1049.3	425.27	940.27	948.4	345.87	942.88	949.39	427.88	995.61	879.23	386.13	794.26	1462.7	-112.5	725.32	1300.5	-197.41	671.66	1142.7	-240.32	660.34	1002.1	-248.57	682.46	871.46	-186.99	701.51	357.78	161.43	650.71	278.32	209.05	848.47	757.04	-134.47	917.48	600.91	-111.66	933.1	704.65	-104.14	958.32	519.19	48.061	1037.6	436.71	-61.921	1032.2	338.91	-98.421	1234.4	120.61	-44.957	771.5	684.25	255.53	1066.7	358.09	-49.986	926.77	520.38	-107.26	667.64	781.84	-215.01	632.87	863.91	-242.22	1089.6	274.41	-38.992	1181.4	75.011	-106.15	1268.1	141.55	-91.559	668.74	277.66	150.35	707.31	601.54	253.69	637.59	198.23	139.25	666.78	496.16	85.119	882.38	679.76	-125.34	719.57	771.18	283.86	714.08	685.8	268.32	558.79	81.954	74.095	752.38	1564.6	-10.481	768.88	1094.4	331.16	672.24	486.91	240.23	726.49	28.237	150.05	642.79	1356.2	185.02	678.97	26.036	113.6	458.9	55.841	110.32	1069.6	91.599	-35.283	602.51	1106.5	-141.82	1103.1	114.53	43.599	591.41	1032.5	98.558	708.84	1476.2	66.787	641.32	1161.6	65.466	607.96	1026.5	17.225	761.16	1585	138.41	1048.3	43.915	27.727
495	2.475	901.59	1657	98.289	905.89	1647.2	-0.28641	909.48	1395.8	73.192	979.1	1238	74.627	861.51	968.87	-103.47	852.64	980.19	267.14	788.63	1480.6	238.2	781.14	1317	363.83	818.12	1177	424.08	896.86	1048.9	424.49	948.58	948.3	344.96	951.38	949.29	426.97	1004.4	879.43	385.07	801.26	1461.6	-113.17	731.58	1299.6	-197.98	677.02	1142.1	-240.58	664.99	1001.6	-248.66	686.47	870.83	-186.89	703.52	357.01	161.28	652.12	277.92	208.86	854.8	755.36	-134.32	923.88	599.36	-111.05	939.53	703.14	-104.02	965.12	518.04	48.621	1045.6	436.65	-61.699	1041.5	338.7	-98.094	1247.7	123.72	-44.866	775.6	683.12	255.38	1076.1	358.45	-49.846	933.55	518.83	-106.68	670.93	781.15	-214.62	636.8	863.45	-242.06	1100.3	275.08	-38.875	1195.4	76.902	-105.95	1281.1	145.12	-91.476	670.26	277.09	150.19	710.85	600.87	253.48	638.62	197.84	139.1	669.95	495.72	84.811	888.8	678.16	-124.98	724.26	770.43	283.67	718.19	685.08	268.12	559.14	82.062	73.918	759.02	1563.1	-11.346	776.42	1093.3	330.6	674.96	486.43	239.92	726.62	28.141	150.22	649.34	1355	184.06	679.01	26.049	113.63	459.05	56.33	110.05	1083.2	91.883	-34.858	608.02	1106.3	-141.9	1116.6	115.44	43.863	597.87	1031.4	97.524	715.54	1474.9	65.939	647.85	1160.3	64.504	614.64	1025.3	16.272	767.79	1583.8	137.51	1062.8	43.809	28.244
496	2.48	908.2	1655.8	97.177	912.49	1645.7	-1.3879	916.21	1394.4	72.613	985.81	1236.6	74.304	868.31	967.04	-103.67	858.05	979.11	267.32	795.14	1479.5	237.32	788.1	1316	363.1	825.5	1176.1	423.44	904.78	1048.4	423.69	956.84	948.19	344.04	959.81	949.17	426.04	1013.1	879.6	384.01	808.28	1460.4	-113.88	737.88	1298.8	-198.58	682.46	1141.5	-240.88	669.74	1001	-248.78	690.62	870.17	-186.82	705.56	356.24	161.12	653.55	277.53	208.66	861.24	753.75	-134.2	930.43	597.91	-110.46	946.09	701.72	-103.91	972.09	516.97	49.122	1053.6	436.48	-61.49	1050.6	338.4	-97.747	1260.2	126.38	-44.692	779.74	681.99	255.23	1085.2	358.65	-49.689	940.45	517.36	-106.14	674.37	780.42	-214.26	640.85	862.95	-241.92	1110.6	275.57	-38.71	1208.5	78.478	-105.66	1293.3	148.17	-91.319	671.81	276.53	150.02	714.43	600.18	253.27	639.67	197.48	138.95	673.16	495.27	84.492	895.36	676.64	-124.64	729	769.66	283.47	722.36	684.35	267.92	559.5	82.198	73.74	765.67	1561.5	-12.259	783.94	1092.3	330.02	677.74	485.96	239.61	726.75	28.05	150.39	655.93	1353.7	183.06	679.05	26.061	113.67	459.2	56.862	109.78	1096	92.074	-34.343	613.6	1106.1	-142.04	1129.3	116.2	44.222	604.38	1030.3	96.512	722.25	1473.7	65.055	654.4	1159	63.556	621.35	1024	15.331	774.44	1582.5	136.56	1076.5	43.686	28.86
497	2.485	914.84	1654.5	96.009	919.11	1644.3	-2.5451	922.96	1393.1	71.989	992.54	1235.2	73.955	875.15	965.25	-103.85	863.5	978.04	267.44	801.69	1478.3	236.4	795.08	1315	362.33	832.85	1175.3	422.75	912.65	1048	422.87	965.04	948.06	343.1	968.16	949.02	425.11	1021.7	879.74	382.95	815.31	1459.1	-114.63	744.22	1297.9	-199.22	687.97	1140.8	-241.23	674.61	1000.3	-248.95	694.91	869.47	-186.78	707.64	355.47	160.96	655	277.15	208.45	867.81	752.23	-134.1	937.17	596.56	-109.93	952.79	700.42	-103.81	979.24	516	49.561	1061.6	436.18	-61.285	1059.5	338	-97.373	1271.8	128.55	-44.415	783.94	680.84	255.07	1094.1	358.69	-49.501	947.5	515.97	-105.65	677.97	779.66	-213.92	645.04	862.4	-241.82	1120.4	275.86	-38.486	1220.7	79.696	-105.25	1304.7	150.64	-91.067	673.39	275.97	149.85	718.07	599.49	253.06	640.75	197.12	138.8	676.43	494.82	84.164	902.06	675.21	-124.32	733.8	768.88	283.27	726.58	683.6	267.71	559.88	82.363	73.562	772.35	1560	-13.222	791.45	1091.2	329.41	680.56	485.48	239.29	726.88	27.964	150.57	662.55	1352.5	182.03	679.1	26.073	113.7	459.36	57.443	109.51	1108	92.14	-33.734	619.26	1105.8	-142.23	1141.2	116.76	44.685	610.92	1029.1	95.527	729	1472.4	64.133	660.98	1157.7	62.627	628.1	1022.7	14.41	781.11	1581.2	135.57	1089.1	43.513	29.575
